# xmcd
#
# Track frame offsets:
#	150
#	16084
#	32240
#	49220
#	66154
#	79992
#	92981
#	104307
#	120558
#	129261
#	144205
#
# Disc length: 2124 seconds
#
# Revision: 0
# Processed by: cddbd v1.5PL3 Copyright (c) Steve Scherf et al.
# Submitted via: dBpowerAMP V4.0
#
DISCID=8d084a0b
DTITLE=John Evans Band - Out of Control
DYEAR=2002
DGENRE=
TTITLE0=Whoa Hoo Yeah
TTITLE1=So Long
TTITLE2=Wrong Way Joe
TTITLE3=Love Don't Know My Name
TTITLE4=Silver Eagle
TTITLE5=Hank and a Harley
TTITLE6=She Talks to Strangers
TTITLE7=Cross That Line
TTITLE8=Safe Place to Hide
TTITLE9=Lonesome Roses
TTITLE10=Out of Control
EXTD=
EXTT0=
EXTT1=
EXTT2=
EXTT3=
EXTT4=
EXTT5=
EXTT6=
EXTT7=
EXTT8=
EXTT9=
EXTT10=
PLAYORDER=
